<?xml version="1.0" standalone="no"?>
<!DOCTYPE svg PUBLIC "-//W3C//DTD SVG 20010904//EN"
 "http://www.w3.org/TR/2001/REC-SVG-20010904/DTD/svg10.dtd">
<svg version="1.0" xmlns="http://www.w3.org/2000/svg"
 width="500.000000pt" height="500.000000pt" viewBox="0 0 500.000000 500.000000"
 preserveAspectRatio="xMidYMid meet">
<metadata>
Created by potrace 1.11, written by Peter Selinger 2001-2013
</metadata>
<g transform="translate(0.000000,500.000000) scale(0.100000,-0.100000)"
fill="#000000" stroke="none">
<path d="M2367 4984 c-1 -1 -40 -5 -87 -8 -124 -10 -322 -43 -400 -66 -19 -6
-44 -13 -54 -15 -54 -12 -223 -72 -316 -113 -126 -55 -207 -97 -318 -166 -46
-28 -91 -55 -101 -61 -9 -5 -23 -16 -31 -23 -8 -7 -40 -31 -70 -53 -87 -63
-147 -116 -265 -234 -150 -150 -231 -253 -383 -490 -33 -52 -164 -330 -190
-405 -31 -85 -82 -258 -88 -295 -1 -11 -8 -42 -13 -70 -19 -85 -24 -119 -38
-250 -15 -135 -7 -474 13 -590 37 -218 90 -417 147 -555 6 -14 11 -27 12 -30
31 -93 231 -458 257 -468 4 -2 8 -10 8 -17 0 -7 3 -15 8 -17 4 -1 33 -37 64
-78 224 -295 522 -537 873 -710 209 -102 459 -187 635 -215 46 -8 66 -11 110
-19 103 -20 460 -28 600 -14 185 19 484 85 585 128 11 5 58 23 105 41 229 89
492 248 699 424 293 249 556 618 694 975 65 166 125 390 143 534 3 23 7 52 10
66 35 196 17 591 -36 830 -6 25 -12 54 -15 65 -14 74 -88 292 -130 390 -31 70
-127 259 -146 287 -11 14 -19 31 -19 37 0 6 -4 11 -10 11 -5 0 -10 4 -10 10 0
12 -80 125 -165 235 -72 92 -209 233 -310 320 -38 33 -72 62 -75 66 -3 3 -43
33 -90 66 -176 127 -355 226 -545 301 -101 40 -274 96 -330 107 -16 3 -39 8
-50 10 -91 21 -238 44 -321 51 -69 6 -352 12 -357 8z"/>
</g>
</svg>
